<svg width="478" height="100" viewBox="0 0 478 100" fill="none" xmlns="http://www.w3.org/2000/svg">
<path d="M50 100C77.6142 100 100 77.6142 100 50C100 22.3858 77.6142 0 50 0C22.3858 0 0 22.3858 0 50C0 77.6142 22.3858 100 50 100Z" fill="#2DA1A9"/>
<path d="M50 29.6875C38.7793 29.6875 29.6875 38.7793 29.6875 50V53.9062C29.6875 55.2051 28.6426 56.25 27.3438 56.25C26.0449 56.25 25 55.2051 25 53.9062V50C25 36.1914 36.1914 25 50 25C63.8086 25 75 36.1914 75 50V64.0723C75 68.8184 71.1523 72.666 66.3965 72.666L55.625 72.6562C54.8145 74.0527 53.3008 75 51.5625 75H48.4375C45.8496 75 43.75 72.9004 43.75 70.3125C43.75 67.7246 45.8496 65.625 48.4375 65.625H51.5625C53.3008 65.625 54.8145 66.5723 55.625 67.9688L66.4062 67.9785C68.5645 67.9785 70.3125 66.2305 70.3125 64.0723V50C70.3125 38.7793 61.2207 29.6875 50 29.6875ZM39.0625 45.3125H40.625C42.3535 45.3125 43.75 46.709 43.75 48.4375V59.375C43.75 61.1035 42.3535 62.5 40.625 62.5H39.0625C35.6152 62.5 32.8125 59.6973 32.8125 56.25V51.5625C32.8125 48.1152 35.6152 45.3125 39.0625 45.3125ZM60.9375 45.3125C64.3848 45.3125 67.1875 48.1152 67.1875 51.5625V56.25C67.1875 59.6973 64.3848 62.5 60.9375 62.5H59.375C57.6465 62.5 56.25 61.1035 56.25 59.375V48.4375C56.25 46.709 57.6465 45.3125 59.375 45.3125H60.9375Z" fill="white"/>
<path d="M130.343 69.3578C128.065 69.3578 126.076 69.0348 124.376 68.3888C122.676 67.7428 121.35 66.8418 120.398 65.6858C119.48 64.5298 119.021 63.2208 119.021 61.7588V61.2488C119.021 61.0788 119.072 60.9428 119.174 60.8408C119.31 60.7048 119.463 60.6368 119.633 60.6368H125.294C125.464 60.6368 125.6 60.7048 125.702 60.8408C125.838 60.9428 125.906 61.0788 125.906 61.2488V61.2998C125.906 62.0478 126.314 62.6938 127.13 63.2378C127.98 63.7478 129.034 64.0028 130.292 64.0028C131.448 64.0028 132.383 63.7818 133.097 63.3398C133.811 62.8638 134.168 62.2858 134.168 61.6058C134.168 60.9938 133.862 60.5348 133.25 60.2288C132.638 59.9228 131.635 59.5998 130.241 59.2598C128.643 58.8518 127.385 58.4608 126.467 58.0868C124.291 57.3388 122.557 56.4208 121.265 55.3328C119.973 54.2448 119.327 52.6808 119.327 50.6408C119.327 48.1248 120.296 46.1358 122.234 44.6738C124.206 43.1778 126.807 42.4298 130.037 42.4298C132.213 42.4298 134.117 42.7868 135.749 43.5008C137.381 44.1808 138.639 45.1498 139.523 46.4078C140.441 47.6658 140.9 49.0938 140.9 50.6918C140.9 50.8618 140.832 51.0148 140.696 51.1508C140.594 51.2528 140.458 51.3038 140.288 51.3038H134.831C134.661 51.3038 134.508 51.2528 134.372 51.1508C134.27 51.0148 134.219 50.8618 134.219 50.6918C134.219 49.9438 133.828 49.3148 133.046 48.8048C132.298 48.2948 131.295 48.0398 130.037 48.0398C128.915 48.0398 127.997 48.2438 127.283 48.6518C126.569 49.0598 126.212 49.6208 126.212 50.3348C126.212 51.0148 126.552 51.5248 127.232 51.8648C127.946 52.2048 129.119 52.5618 130.751 52.9358C131.125 53.0378 131.55 53.1568 132.026 53.2928C132.502 53.3948 133.012 53.5308 133.556 53.7008C135.97 54.4148 137.874 55.3328 139.268 56.4548C140.662 57.5768 141.359 59.2088 141.359 61.3508C141.359 63.8668 140.356 65.8388 138.35 67.2668C136.378 68.6608 133.709 69.3578 130.343 69.3578ZM155.943 42.3788C158.153 42.3788 160.125 42.7698 161.859 43.5518C163.593 44.2998 164.936 45.3368 165.888 46.6628C166.874 47.9888 167.367 49.4678 167.367 51.0998V68.3888C167.367 68.5588 167.299 68.7118 167.163 68.8478C167.061 68.9498 166.925 69.0008 166.755 69.0008H160.788C160.618 69.0008 160.465 68.9498 160.329 68.8478C160.227 68.7118 160.176 68.5588 160.176 68.3888V66.7058C160.176 66.6038 160.142 66.5358 160.074 66.5018C160.006 66.4678 159.938 66.5018 159.87 66.6038C158.442 68.4738 156.147 69.4088 152.985 69.4088C150.333 69.4088 148.191 68.7628 146.559 67.4708C144.927 66.1788 144.111 64.2748 144.111 61.7588C144.111 59.1408 145.029 57.1178 146.865 55.6898C148.701 54.2278 151.319 53.4968 154.719 53.4968H159.921C160.091 53.4968 160.176 53.4118 160.176 53.2418V52.1198C160.176 50.9978 159.836 50.1308 159.156 49.5188C158.476 48.8728 157.456 48.5498 156.096 48.5498C155.042 48.5498 154.158 48.7368 153.444 49.1108C152.764 49.4848 152.322 50.0118 152.118 50.6918C152.016 51.0658 151.795 51.2358 151.455 51.2018L145.284 50.3858C144.876 50.3178 144.689 50.1648 144.723 49.9268C144.859 48.4988 145.42 47.2068 146.406 46.0508C147.426 44.8948 148.752 43.9938 150.384 43.3478C152.05 42.7018 153.903 42.3788 155.943 42.3788ZM154.923 64.0538C156.385 64.0538 157.626 63.6628 158.646 62.8808C159.666 62.0988 160.176 61.0958 160.176 59.8718V58.0358C160.176 57.8658 160.091 57.7808 159.921 57.7808H156.249C154.719 57.7808 153.512 58.0698 152.628 58.6478C151.778 59.2258 151.353 60.0418 151.353 61.0958C151.353 62.0138 151.676 62.7448 152.322 63.2888C152.968 63.7988 153.835 64.0538 154.923 64.0538ZM201.502 42.3788C204.154 42.3788 206.228 43.1778 207.724 44.7758C209.22 46.3738 209.968 48.6178 209.968 51.5078V68.3888C209.968 68.5588 209.9 68.7118 209.764 68.8478C209.662 68.9498 209.526 69.0008 209.356 69.0008H203.389C203.219 69.0008 203.066 68.9498 202.93 68.8478C202.828 68.7118 202.777 68.5588 202.777 68.3888V53.0888C202.777 51.6948 202.42 50.5898 201.706 49.7738C200.992 48.9578 200.04 48.5498 198.85 48.5498C197.66 48.5498 196.691 48.9578 195.943 49.7738C195.195 50.5898 194.821 51.6778 194.821 53.0378V68.3888C194.821 68.5588 194.753 68.7118 194.617 68.8478C194.515 68.9498 194.379 69.0008 194.209 69.0008H188.293C188.123 69.0008 187.97 68.9498 187.834 68.8478C187.732 68.7118 187.681 68.5588 187.681 68.3888V53.0888C187.681 51.7288 187.307 50.6408 186.559 49.8248C185.811 48.9748 184.842 48.5498 183.652 48.5498C182.564 48.5498 181.646 48.8728 180.898 49.5188C180.184 50.1648 179.759 51.0658 179.623 52.2218V68.3888C179.623 68.5588 179.555 68.7118 179.419 68.8478C179.317 68.9498 179.181 69.0008 179.011 69.0008H173.044C172.874 69.0008 172.721 68.9498 172.585 68.8478C172.483 68.7118 172.432 68.5588 172.432 68.3888V43.3988C172.432 43.2288 172.483 43.0928 172.585 42.9908C172.721 42.8548 172.874 42.7868 173.044 42.7868H179.011C179.181 42.7868 179.317 42.8548 179.419 42.9908C179.555 43.0928 179.623 43.2288 179.623 43.3988V45.3878C179.623 45.4898 179.657 45.5578 179.725 45.5918C179.793 45.6258 179.861 45.5918 179.929 45.4898C181.323 43.4158 183.482 42.3788 186.406 42.3788C188.106 42.3788 189.585 42.7358 190.843 43.4498C192.135 44.1638 193.121 45.1838 193.801 46.5098C193.903 46.7138 194.022 46.7138 194.158 46.5098C194.906 45.1158 195.909 44.0788 197.167 43.3988C198.459 42.7188 199.904 42.3788 201.502 42.3788ZM225.47 42.3788C227.68 42.3788 229.652 42.7698 231.386 43.5518C233.12 44.2998 234.463 45.3368 235.415 46.6628C236.401 47.9888 236.894 49.4678 236.894 51.0998V68.3888C236.894 68.5588 236.826 68.7118 236.69 68.8478C236.588 68.9498 236.452 69.0008 236.282 69.0008H230.315C230.145 69.0008 229.992 68.9498 229.856 68.8478C229.754 68.7118 229.703 68.5588 229.703 68.3888V66.7058C229.703 66.6038 229.669 66.5358 229.601 66.5018C229.533 66.4678 229.465 66.5018 229.397 66.6038C227.969 68.4738 225.674 69.4088 222.512 69.4088C219.86 69.4088 217.718 68.7628 216.086 67.4708C214.454 66.1788 213.638 64.2748 213.638 61.7588C213.638 59.1408 214.556 57.1178 216.392 55.6898C218.228 54.2278 220.846 53.4968 224.246 53.4968H229.448C229.618 53.4968 229.703 53.4118 229.703 53.2418V52.1198C229.703 50.9978 229.363 50.1308 228.683 49.5188C228.003 48.8728 226.983 48.5498 225.623 48.5498C224.569 48.5498 223.685 48.7368 222.971 49.1108C222.291 49.4848 221.849 50.0118 221.645 50.6918C221.543 51.0658 221.322 51.2358 220.982 51.2018L214.811 50.3858C214.403 50.3178 214.216 50.1648 214.25 49.9268C214.386 48.4988 214.947 47.2068 215.933 46.0508C216.953 44.8948 218.279 43.9938 219.911 43.3478C221.577 42.7018 223.43 42.3788 225.47 42.3788ZM224.45 64.0538C225.912 64.0538 227.153 63.6628 228.173 62.8808C229.193 62.0988 229.703 61.0958 229.703 59.8718V58.0358C229.703 57.8658 229.618 57.7808 229.448 57.7808H225.776C224.246 57.7808 223.039 58.0698 222.155 58.6478C221.305 59.2258 220.88 60.0418 220.88 61.0958C220.88 62.0138 221.203 62.7448 221.849 63.2888C222.495 63.7988 223.362 64.0538 224.45 64.0538ZM253.486 69.4088C250.766 69.4088 248.403 68.7288 246.397 67.3688C244.425 66.0088 243.014 64.1388 242.164 61.7588C241.586 60.0588 241.297 58.0528 241.297 55.7408C241.297 53.4628 241.586 51.4908 242.164 49.8248C242.98 47.5128 244.391 45.6938 246.397 44.3678C248.403 43.0418 250.766 42.3788 253.486 42.3788C256.206 42.3788 258.586 43.0588 260.626 44.4188C262.7 45.7788 264.077 47.4958 264.757 49.5698C265.029 50.3858 265.165 50.9978 265.165 51.4058V51.5078C265.165 51.8138 264.995 52.0008 264.655 52.0688L258.79 52.9358H258.688C258.382 52.9358 258.178 52.7658 258.076 52.4258L257.923 51.6098C257.685 50.7258 257.158 49.9948 256.342 49.4168C255.526 48.8388 254.557 48.5498 253.435 48.5498C252.347 48.5498 251.429 48.8218 250.681 49.3658C249.933 49.9098 249.406 50.6578 249.1 51.6098C248.726 52.6298 248.539 54.0238 248.539 55.7918C248.539 57.5598 248.709 58.9538 249.049 59.9738C249.355 60.9938 249.882 61.7928 250.63 62.3708C251.412 62.9488 252.347 63.2378 253.435 63.2378C254.489 63.2378 255.407 62.9658 256.189 62.4218C257.005 61.8438 257.566 61.0618 257.872 60.0758C257.906 60.0078 257.923 59.9058 257.923 59.7698C257.957 59.7358 257.974 59.6848 257.974 59.6168C258.008 59.2088 258.246 59.0388 258.688 59.1068L264.553 60.0248C264.893 60.0928 265.063 60.2798 265.063 60.5858C265.063 60.8578 264.961 61.3678 264.757 62.1158C264.043 64.3938 262.649 66.1788 260.575 67.4708C258.535 68.7628 256.172 69.4088 253.486 69.4088ZM279.807 42.3788C282.017 42.3788 283.989 42.7698 285.723 43.5518C287.457 44.2998 288.8 45.3368 289.752 46.6628C290.738 47.9888 291.231 49.4678 291.231 51.0998V68.3888C291.231 68.5588 291.163 68.7118 291.027 68.8478C290.925 68.9498 290.789 69.0008 290.619 69.0008H284.652C284.482 69.0008 284.329 68.9498 284.193 68.8478C284.091 68.7118 284.04 68.5588 284.04 68.3888V66.7058C284.04 66.6038 284.006 66.5358 283.938 66.5018C283.87 66.4678 283.802 66.5018 283.734 66.6038C282.306 68.4738 280.011 69.4088 276.849 69.4088C274.197 69.4088 272.055 68.7628 270.423 67.4708C268.791 66.1788 267.975 64.2748 267.975 61.7588C267.975 59.1408 268.893 57.1178 270.729 55.6898C272.565 54.2278 275.183 53.4968 278.583 53.4968H283.785C283.955 53.4968 284.04 53.4118 284.04 53.2418V52.1198C284.04 50.9978 283.7 50.1308 283.02 49.5188C282.34 48.8728 281.32 48.5498 279.96 48.5498C278.906 48.5498 278.022 48.7368 277.308 49.1108C276.628 49.4848 276.186 50.0118 275.982 50.6918C275.88 51.0658 275.659 51.2358 275.319 51.2018L269.148 50.3858C268.74 50.3178 268.553 50.1648 268.587 49.9268C268.723 48.4988 269.284 47.2068 270.27 46.0508C271.29 44.8948 272.616 43.9938 274.248 43.3478C275.914 42.7018 277.767 42.3788 279.807 42.3788ZM278.787 64.0538C280.249 64.0538 281.49 63.6628 282.51 62.8808C283.53 62.0988 284.04 61.0958 284.04 59.8718V58.0358C284.04 57.8658 283.955 57.7808 283.785 57.7808H280.113C278.583 57.7808 277.376 58.0698 276.492 58.6478C275.642 59.2258 275.217 60.0418 275.217 61.0958C275.217 62.0138 275.54 62.7448 276.186 63.2888C276.832 63.7988 277.699 64.0538 278.787 64.0538ZM296.909 69.0008C296.739 69.0008 296.586 68.9498 296.45 68.8478C296.348 68.7118 296.297 68.5588 296.297 68.3888V33.9128C296.297 33.7428 296.348 33.6068 296.45 33.5048C296.586 33.3688 296.739 33.3008 296.909 33.3008H302.876C303.046 33.3008 303.182 33.3688 303.284 33.5048C303.42 33.6068 303.488 33.7428 303.488 33.9128V68.3888C303.488 68.5588 303.42 68.7118 303.284 68.8478C303.182 68.9498 303.046 69.0008 302.876 69.0008H296.909ZM309.36 69.0008C309.19 69.0008 309.037 68.9498 308.901 68.8478C308.799 68.7118 308.748 68.5588 308.748 68.3888V33.9128C308.748 33.7428 308.799 33.6068 308.901 33.5048C309.037 33.3688 309.19 33.3008 309.36 33.3008H315.327C315.497 33.3008 315.633 33.3688 315.735 33.5048C315.871 33.6068 315.939 33.7428 315.939 33.9128V68.3888C315.939 68.5588 315.871 68.7118 315.735 68.8478C315.633 68.9498 315.497 69.0008 315.327 69.0008H309.36ZM332.725 69.4088C330.005 69.4088 327.642 68.7288 325.636 67.3688C323.664 66.0088 322.253 64.1388 321.403 61.7588C320.825 60.0588 320.536 58.0528 320.536 55.7408C320.536 53.4628 320.825 51.4908 321.403 49.8248C322.219 47.5128 323.63 45.6938 325.636 44.3678C327.642 43.0418 330.005 42.3788 332.725 42.3788C335.445 42.3788 337.825 43.0588 339.865 44.4188C341.939 45.7788 343.316 47.4958 343.996 49.5698C344.268 50.3858 344.404 50.9978 344.404 51.4058V51.5078C344.404 51.8138 344.234 52.0008 343.894 52.0688L338.029 52.9358H337.927C337.621 52.9358 337.417 52.7658 337.315 52.4258L337.162 51.6098C336.924 50.7258 336.397 49.9948 335.581 49.4168C334.765 48.8388 333.796 48.5498 332.674 48.5498C331.586 48.5498 330.668 48.8218 329.92 49.3658C329.172 49.9098 328.645 50.6578 328.339 51.6098C327.965 52.6298 327.778 54.0238 327.778 55.7918C327.778 57.5598 327.948 58.9538 328.288 59.9738C328.594 60.9938 329.121 61.7928 329.869 62.3708C330.651 62.9488 331.586 63.2378 332.674 63.2378C333.728 63.2378 334.646 62.9658 335.428 62.4218C336.244 61.8438 336.805 61.0618 337.111 60.0758C337.145 60.0078 337.162 59.9058 337.162 59.7698C337.196 59.7358 337.213 59.6848 337.213 59.6168C337.247 59.2088 337.485 59.0388 337.927 59.1068L343.792 60.0248C344.132 60.0928 344.302 60.2798 344.302 60.5858C344.302 60.8578 344.2 61.3678 343.996 62.1158C343.282 64.3938 341.888 66.1788 339.814 67.4708C337.774 68.7628 335.411 69.4088 332.725 69.4088ZM371.498 53.1908C371.702 54.4828 371.77 55.9278 371.702 57.5258C371.668 57.9338 371.447 58.1378 371.039 58.1378H355.28C355.076 58.1378 355.008 58.2228 355.076 58.3928C355.178 59.0728 355.365 59.7528 355.637 60.4328C356.521 62.3368 358.323 63.2888 361.043 63.2888C363.219 63.2548 364.936 62.3708 366.194 60.6368C366.33 60.4328 366.483 60.3308 366.653 60.3308C366.755 60.3308 366.874 60.3988 367.01 60.5348L370.682 64.1558C370.852 64.3258 370.937 64.4788 370.937 64.6148C370.937 64.6828 370.869 64.8188 370.733 65.0228C369.611 66.4168 368.166 67.5048 366.398 68.2868C364.63 69.0348 362.692 69.4088 360.584 69.4088C357.66 69.4088 355.178 68.7458 353.138 67.4198C351.132 66.0938 349.687 64.2408 348.803 61.8608C348.089 60.1608 347.732 57.9338 347.732 55.1798C347.732 53.3098 347.987 51.6608 348.497 50.2328C349.279 47.8188 350.639 45.8978 352.577 44.4698C354.549 43.0418 356.878 42.3278 359.564 42.3278C362.964 42.3278 365.684 43.3138 367.724 45.2858C369.798 47.2578 371.056 49.8928 371.498 53.1908ZM359.615 48.5498C357.473 48.5498 356.062 49.5528 355.382 51.5588C355.246 52.0008 355.127 52.5448 355.025 53.1908C355.025 53.3608 355.11 53.4458 355.28 53.4458H364.103C364.307 53.4458 364.375 53.3608 364.307 53.1908C364.137 52.2048 364.052 51.7288 364.052 51.7628C363.746 50.7428 363.202 49.9608 362.42 49.4168C361.672 48.8388 360.737 48.5498 359.615 48.5498ZM389.801 42.3788C392.521 42.3788 394.714 43.2118 396.38 44.8778C398.046 46.5438 398.879 48.8048 398.879 51.6608V68.3888C398.879 68.5588 398.811 68.7118 398.675 68.8478C398.573 68.9498 398.437 69.0008 398.267 69.0008H392.3C392.13 69.0008 391.977 68.9498 391.841 68.8478C391.739 68.7118 391.688 68.5588 391.688 68.3888V53.1398C391.688 51.7798 391.297 50.6748 390.515 49.8248C389.767 48.9748 388.764 48.5498 387.506 48.5498C386.248 48.5498 385.228 48.9748 384.446 49.8248C383.698 50.6748 383.324 51.7798 383.324 53.1398V68.3888C383.324 68.5588 383.256 68.7118 383.12 68.8478C383.018 68.9498 382.882 69.0008 382.712 69.0008H376.745C376.575 69.0008 376.422 68.9498 376.286 68.8478C376.184 68.7118 376.133 68.5588 376.133 68.3888V43.3988C376.133 43.2288 376.184 43.0928 376.286 42.9908C376.422 42.8548 376.575 42.7868 376.745 42.7868H382.712C382.882 42.7868 383.018 42.8548 383.12 42.9908C383.256 43.0928 383.324 43.2288 383.324 43.3988V45.1838C383.324 45.2858 383.358 45.3538 383.426 45.3878C383.494 45.4218 383.545 45.4048 383.579 45.3368C384.973 43.3648 387.047 42.3788 389.801 42.3788ZM419.069 47.9378C419.069 48.1078 419.001 48.2608 418.865 48.3968C418.763 48.4988 418.627 48.5498 418.457 48.5498H413.561C413.391 48.5498 413.306 48.6348 413.306 48.8048V59.6168C413.306 60.7388 413.527 61.5718 413.969 62.1158C414.445 62.6598 415.193 62.9318 416.213 62.9318H417.896C418.066 62.9318 418.202 62.9998 418.304 63.1358C418.44 63.2378 418.508 63.3738 418.508 63.5438V68.3888C418.508 68.7628 418.304 68.9838 417.896 69.0518C416.468 69.1198 415.448 69.1538 414.836 69.1538C412.014 69.1538 409.906 68.6948 408.512 67.7768C407.118 66.8248 406.404 65.0568 406.37 62.4728V48.8048C406.37 48.6348 406.285 48.5498 406.115 48.5498H403.208C403.038 48.5498 402.885 48.4988 402.749 48.3968C402.647 48.2608 402.596 48.1078 402.596 47.9378V43.3988C402.596 43.2288 402.647 43.0928 402.749 42.9908C402.885 42.8548 403.038 42.7868 403.208 42.7868H406.115C406.285 42.7868 406.37 42.7018 406.37 42.5318V36.4628C406.37 36.2928 406.421 36.1568 406.523 36.0548C406.659 35.9188 406.812 35.8508 406.982 35.8508H412.694C412.864 35.8508 413 35.9188 413.102 36.0548C413.238 36.1568 413.306 36.2928 413.306 36.4628V42.5318C413.306 42.7018 413.391 42.7868 413.561 42.7868H418.457C418.627 42.7868 418.763 42.8548 418.865 42.9908C419.001 43.0928 419.069 43.2288 419.069 43.3988V47.9378ZM446.254 53.1908C446.458 54.4828 446.526 55.9278 446.458 57.5258C446.424 57.9338 446.203 58.1378 445.795 58.1378H430.036C429.832 58.1378 429.764 58.2228 429.832 58.3928C429.934 59.0728 430.121 59.7528 430.393 60.4328C431.277 62.3368 433.079 63.2888 435.799 63.2888C437.975 63.2548 439.692 62.3708 440.95 60.6368C441.086 60.4328 441.239 60.3308 441.409 60.3308C441.511 60.3308 441.63 60.3988 441.766 60.5348L445.438 64.1558C445.608 64.3258 445.693 64.4788 445.693 64.6148C445.693 64.6828 445.625 64.8188 445.489 65.0228C444.367 66.4168 442.922 67.5048 441.154 68.2868C439.386 69.0348 437.448 69.4088 435.34 69.4088C432.416 69.4088 429.934 68.7458 427.894 67.4198C425.888 66.0938 424.443 64.2408 423.559 61.8608C422.845 60.1608 422.488 57.9338 422.488 55.1798C422.488 53.3098 422.743 51.6608 423.253 50.2328C424.035 47.8188 425.395 45.8978 427.333 44.4698C429.305 43.0418 431.634 42.3278 434.32 42.3278C437.72 42.3278 440.44 43.3138 442.48 45.2858C444.554 47.2578 445.812 49.8928 446.254 53.1908ZM434.371 48.5498C432.229 48.5498 430.818 49.5528 430.138 51.5588C430.002 52.0008 429.883 52.5448 429.781 53.1908C429.781 53.3608 429.866 53.4458 430.036 53.4458H438.859C439.063 53.4458 439.131 53.3608 439.063 53.1908C438.893 52.2048 438.808 51.7288 438.808 51.7628C438.502 50.7428 437.958 49.9608 437.176 49.4168C436.428 48.8388 435.493 48.5498 434.371 48.5498ZM463.946 42.4298C465.17 42.4298 466.139 42.6678 466.853 43.1438C467.125 43.2798 467.227 43.5348 467.159 43.9088L466.088 49.7228C466.054 50.1308 465.816 50.2498 465.374 50.0798C464.864 49.9098 464.269 49.8248 463.589 49.8248C463.317 49.8248 462.943 49.8588 462.467 49.9268C461.243 50.0288 460.206 50.4878 459.356 51.3038C458.506 52.0858 458.081 53.1398 458.081 54.4658V68.3888C458.081 68.5588 458.013 68.7118 457.877 68.8478C457.775 68.9498 457.639 69.0008 457.469 69.0008H451.502C451.332 69.0008 451.179 68.9498 451.043 68.8478C450.941 68.7118 450.89 68.5588 450.89 68.3888V43.3988C450.89 43.2288 450.941 43.0928 451.043 42.9908C451.179 42.8548 451.332 42.7868 451.502 42.7868H457.469C457.639 42.7868 457.775 42.8548 457.877 42.9908C458.013 43.0928 458.081 43.2288 458.081 43.3988V45.3368C458.081 45.4388 458.115 45.5068 458.183 45.5408C458.251 45.5748 458.302 45.5578 458.336 45.4898C459.73 43.4498 461.6 42.4298 463.946 42.4298Z" fill="#2DA1A9"/>
</svg>
